<?xml version="1.0" encoding="UTF-8"?>
<svg width="164px" height="27px" viewBox="0 0 164 27" version="1.1" xmlns="http://www.w3.org/2000/svg" xmlns:xlink="http://www.w3.org/1999/xlink">
    <!-- Generator: Sketch 42 (36781) - http://www.bohemiancoding.com/sketch -->
    <title>logo-nerdwallet</title>
    <desc>Created with Sketch.</desc>
    <defs></defs>
    <g id="Page-1" stroke="none" stroke-width="1" fill="none" fill-rule="evenodd">
        <g id="styleguide" transform="translate(-164.000000, -14.000000)" fill-rule="nonzero">
            <g id="logo-nerdwallet" transform="translate(164.000000, 14.000000)">
                <g id="Group">
                    <g id="Header">
                        <g>
                            <g id="Group">
                                <g id="Shape">
                                    <g>
                                        <path d="M163.626191,12.6346103 L160.948648,12.6346103 L160.948648,17.6010221 C160.948648,18.2109044 161.066046,18.6681176 161.300842,18.9730588 C161.535439,19.2783971 161.95704,19.4306691 162.565446,19.4306691 C162.774264,19.4306691 162.995971,19.4133971 163.23037,19.3784559 C163.280542,19.3711103 163.328929,19.3627721 163.375531,19.3538382 C163.605964,19.3095662 163.82192,19.4769265 163.825886,19.7111912 L163.865151,22.0677353 C163.867927,22.2360882 163.759453,22.3867721 163.597238,22.4328309 C163.354114,22.5019191 163.070931,22.5644559 162.748285,22.6202426 C162.295748,22.6982647 161.844005,22.737375 161.391865,22.737375 C160.522089,22.737375 159.791923,22.6281838 159.200967,22.4109926 C158.61021,22.194 158.136058,21.8807206 157.780097,21.4711544 C157.423342,21.0623824 157.167129,20.5749926 157.010467,20.0095809 C156.853804,19.4439706 156.776068,18.8128456 156.776068,18.117 L156.776068,12.6346103 L156.749693,9.45794118 L156.749693,6.42024265 C156.749693,6.21397059 156.917064,6.04700735 157.123502,6.04700735 L160.10505,6.04760294 C160.365427,6.04780147 160.584358,6.24295588 160.613509,6.50124265 L160.948648,9.45794118 L163.626191,9.45794118 C163.832629,9.45794118 164,9.62510294 164,9.831375 L164,12.261375 C164,12.4674485 163.832629,12.6346103 163.626191,12.6346103 L163.626191,12.6346103 Z M145.942152,16.9881618 C145.977054,17.3526618 146.085925,17.6826176 146.268368,17.9774338 C146.45081,18.2728456 146.685804,18.52875 146.972556,18.7455441 C147.259705,18.9629338 147.581161,19.1320809 147.937519,19.2533824 C148.293877,19.3748824 148.663323,19.4356324 149.046056,19.4356324 C149.723869,19.4356324 150.297572,19.3099632 150.767163,19.0580294 C151.099923,18.87975 151.388856,18.6643456 151.634162,18.4118162 C151.801137,18.2400882 152.079956,18.2474338 152.248914,18.4169779 L154.096343,20.2704485 C154.269267,20.4439632 154.267086,20.7264706 154.090196,20.8956176 C153.624967,21.340125 153.086563,21.7083971 152.475183,22.0002353 C151.475516,22.4776985 150.315221,22.7163309 148.993901,22.7163309 C148.020015,22.7163309 147.098481,22.5642574 146.229301,22.2607059 C145.359526,21.9571544 144.599018,21.5146324 143.947381,20.9327426 C143.295545,20.35125 142.782525,19.6353529 142.408518,18.7846544 C142.034709,17.9345515 141.847903,16.9621544 141.847903,15.8684559 C141.847903,14.8098971 142.030148,13.8506029 142.395628,12.9911691 C142.760513,12.1319338 143.255884,11.4029338 143.88194,10.8039706 C144.507995,10.2052059 145.246689,9.74104412 146.098815,9.41108824 C146.950742,9.08152941 147.872474,8.91635294 148.863415,8.91635294 C149.819255,8.91635294 150.697557,9.07696324 151.497528,9.39798529 C152.296706,9.71960294 152.98384,10.1837647 153.557741,10.7910662 C154.131642,11.3989632 154.578626,12.1363015 154.900875,13.0042721 C155.222331,13.8724412 155.383158,14.8619118 155.383158,15.9726838 L155.383158,16.4932279 C155.383158,16.6671397 155.374235,16.8317206 155.357378,16.9881618 L145.942152,16.9881618 L145.942152,16.9881618 Z M150.80623,12.5875588 C150.380068,12.1019559 149.741122,11.8585588 148.889393,11.8585588 C148.472155,11.8585588 148.08962,11.9236765 147.74179,12.0539118 C147.393959,12.1839485 147.090152,12.3622279 146.82918,12.5875588 C146.568406,12.8134853 146.359787,13.0783235 146.203125,13.3816765 C146.046859,13.685625 145.959405,14.0026765 145.942152,14.3320368 L151.445374,14.3320368 C151.445374,13.65525 151.232193,13.0737574 150.80623,12.5875588 L150.80623,12.5875588 Z M139.853528,22.2998162 L136.245727,22.2998162 C136.039487,22.2998162 135.871918,22.1326544 135.871918,21.9265809 L135.871918,4.63566176 C135.871918,4.42938971 136.039487,4.26242647 136.245727,4.26242647 L139.853528,4.26242647 C140.059966,4.26242647 140.227337,4.42938971 140.227337,4.63566176 L140.227337,21.9265809 C140.227337,22.1326544 140.059966,22.2998162 139.853528,22.2998162 L139.853528,22.2998162 Z M132.709514,22.2998162 L129.101911,22.2998162 C128.895473,22.2998162 128.728102,22.1326544 128.728102,21.9265809 L128.728102,4.63566176 C128.728102,4.42938971 128.895473,4.26242647 129.101911,4.26242647 L132.709514,4.26242647 C132.915952,4.26242647 133.083323,4.42938971 133.083323,4.63566176 L133.083323,21.9265809 C133.083323,22.1326544 132.915952,22.2998162 132.709514,22.2998162 L132.709514,22.2998162 Z M125.609127,22.2998162 L122.966883,22.2994191 C122.744977,22.2994191 122.548455,22.156875 122.480039,21.9462353 L122.156401,20.9500147 C121.743724,21.3601765 121.188663,21.7401618 120.487845,22.0889779 C119.896493,22.3833971 119.201229,22.5622721 118.404827,22.6281838 C118.186888,22.6520074 117.965973,22.6643162 117.741688,22.6643162 C116.767802,22.6643162 115.89882,22.4731324 115.133553,22.0915588 C114.368484,21.7099853 113.721011,21.2021471 113.190936,20.5682426 C112.660068,19.9347353 112.256116,19.2011691 111.977891,18.3681397 C111.699666,17.5349118 111.560653,16.6671397 111.560653,15.7644265 C111.560653,14.8619118 111.704227,13.9981103 111.991178,13.1734191 C112.278128,12.3493235 112.686244,11.6240956 113.216914,10.9993235 C113.746791,10.3743529 114.390496,9.87981618 115.146443,9.51511765 C115.903183,9.15061765 116.750946,8.96836765 117.689533,8.96836765 L117.690525,8.96836765 C118.75008,8.96836765 119.646031,9.15061765 120.37838,9.51511765 C120.948513,9.79901471 121.417906,10.1043529 121.789533,10.4303382 L122.137761,9.25504412 C122.20221,9.03805147 122.401906,8.88895588 122.628769,8.88895588 L125.609127,8.88955147 C125.815565,8.88955147 125.982936,9.05671324 125.982936,9.26278676 L125.982936,21.9265809 C125.982936,22.1326544 125.815565,22.2998162 125.609127,22.2998162 L125.609127,22.2998162 Z M121.666979,14.5665 C121.518646,14.1674559 121.310225,13.8114926 121.040924,13.4990074 C120.77083,13.1865221 120.444813,12.9351838 120.062873,12.7438015 C119.68014,12.5530147 119.245649,12.4575221 118.759004,12.4575221 C118.254312,12.4575221 117.810699,12.5530147 117.428759,12.7438015 C117.045828,12.9351838 116.724372,13.1823529 116.463797,13.4859044 C116.203023,13.7898529 116.007294,14.1414485 115.876609,14.5404926 C115.746917,14.9399338 115.681475,15.3475147 115.681475,15.7644265 C115.681475,16.1809412 115.746917,16.5934853 115.876609,17.0010662 C116.007294,17.4090441 116.203023,17.7691765 116.463797,18.0816618 C116.724372,18.3941471 117.045828,18.6458824 117.428759,18.8366691 C117.810699,19.0280515 118.254312,19.1231471 118.759004,19.1231471 C119.245649,19.1231471 119.68014,19.0280515 120.062873,18.8366691 C120.444813,18.6458824 120.77083,18.3941471 121.040924,18.0816618 C121.310225,17.7691765 121.518646,17.4136103 121.666979,17.0141691 C121.81452,16.6149265 121.888687,16.2069485 121.888687,15.7904338 C121.888687,15.3737206 121.81452,14.9659412 121.666979,14.5665 L121.666979,14.5665 Z M107.278607,22.0490735 C107.226254,22.1991618 107.084663,22.2998162 106.925422,22.2998162 L103.162148,22.2998162 C102.998941,22.2998162 102.854771,22.1943971 102.805591,22.0389485 L100.332503,14.2280074 L100.280348,14.2280074 L97.8580266,22.0369632 C97.8094414,22.1932059 97.6646771,22.2998162 97.5008755,22.2998162 L93.739584,22.2998162 C93.5803434,22.2998162 93.4383555,22.1987647 93.386399,22.0484779 L89.1588875,9.828 C89.0750036,9.58559559 89.2554631,9.33286765 89.5122709,9.33286765 L93.3181814,9.33286765 C93.4867424,9.33286765 93.6344813,9.44563235 93.6787037,9.60783088 L95.8465973,17.5349118 L95.9247304,17.5349118 L98.1689722,9.60465441 C98.2143845,9.44384559 98.3613301,9.33286765 98.5287013,9.33286765 L102.268774,9.33286765 C102.434955,9.33286765 102.581108,9.44245588 102.627511,9.60147794 L104.9483,17.5349118 L105.000455,17.5349118 L107.193732,9.60683824 C107.238549,9.44503676 107.385891,9.33286765 107.554056,9.33286765 L111.177325,9.33286765 C111.43453,9.33286765 111.614791,9.58619118 111.53051,9.82859559 L107.278607,22.0490735 L107.278607,22.0490735 Z M87.7610206,22.2998162 L85.1187763,22.2998162 C84.8968706,22.2998162 84.7003482,22.1570735 84.6319323,21.9464338 L84.3558888,21.0965294 C83.9622491,21.4507059 83.4591439,21.7820515 82.842607,22.0889779 C82.1267183,22.4453382 81.2589262,22.6321544 80.2431971,22.6539926 C80.1273857,22.6605441 80.0109794,22.6643162 79.8935816,22.6643162 C78.9196953,22.6643162 78.0505151,22.4731324 77.2854462,22.0915588 C76.5203773,21.7099853 75.8729045,21.2021471 75.3426312,20.5682426 C74.8121596,19.9347353 74.4080097,19.2011691 74.1297848,18.3681397 C73.8517582,17.5349118 73.7125466,16.6671397 73.7125466,15.7644265 C73.7125466,14.8619118 73.8559226,13.9981103 74.1430713,13.1734191 C74.4300218,12.3493235 74.8381378,11.6240956 75.3688077,10.9993235 C75.8986844,10.3743529 76.5423894,9.87981618 77.2983362,9.51511765 C78.0550762,9.15061765 78.9028392,8.96836765 79.8414268,8.96836765 C80.7974655,8.96836765 81.6059637,9.15061765 82.2669214,9.51511765 C82.9274825,9.87981618 83.4403047,10.2790588 83.8055865,10.7130441 L83.8577412,10.7130441 L83.8577412,4.63566176 C83.8577412,4.42938971 84.0251125,4.26242647 84.2315502,4.26242647 L87.7610206,4.26242647 C87.9674583,4.26242647 88.1348295,4.42938971 88.1348295,4.63566176 L88.1348295,21.9265809 C88.1348295,22.1326544 87.9674583,22.2998162 87.7610206,22.2998162 L87.7610206,22.2998162 Z M83.818873,14.5665 C83.6705393,14.1674559 83.4621185,13.8114926 83.1928174,13.4990074 C82.9225248,13.1865221 82.5967062,12.9351838 82.2147666,12.7438015 C81.8320339,12.5530147 81.3975429,12.4575221 80.9108972,12.4575221 C80.4062056,12.4575221 79.9625925,12.5530147 79.5804547,12.7438015 C79.1977219,12.9351838 78.876266,13.1823529 78.6156904,13.4859044 C78.3549166,13.7898529 78.1591874,14.1414485 78.0287013,14.5404926 C77.8986119,14.9399338 77.8333688,15.3475147 77.8333688,15.7644265 C77.8333688,16.1809412 77.8986119,16.5934853 78.0287013,17.0010662 C78.1591874,17.4090441 78.3549166,17.7691765 78.6156904,18.0816618 C78.876266,18.3941471 79.1977219,18.6458824 79.5804547,18.8366691 C79.9625925,19.0280515 80.4062056,19.1231471 80.9108972,19.1231471 C81.3975429,19.1231471 81.8320339,19.0280515 82.2147666,18.8366691 C82.5967062,18.6458824 82.9225248,18.3941471 83.1928174,18.0816618 C83.4621185,17.7691765 83.6705393,17.4136103 83.818873,17.0141691 C83.9664135,16.6149265 84.0403821,16.2069485 84.0403821,15.7904338 C84.0403821,15.3737206 83.9664135,14.9659412 83.818873,14.5665 L83.818873,14.5665 Z M73.5854317,9.41664706 L73.4420556,12.430125 C73.4220266,12.6354044 73.2389891,12.7852941 73.0335429,12.7652426 L72.8616106,12.7438015 C72.6791681,12.7267279 72.5004933,12.7177941 72.3269746,12.7177941 C71.7530738,12.7177941 71.2707908,12.8220221 70.8795308,13.0294853 C70.4884692,13.2373456 70.1753422,13.4882868 69.9409432,13.7825074 C69.7059492,14.077125 69.5363966,14.3973529 69.4322854,14.7435882 C69.3279758,15.089625 69.2754244,15.3923824 69.2754244,15.6520588 L69.2754244,21.9265809 C69.2754244,22.1326544 69.1080532,22.2998162 68.9016155,22.2998162 L65.3723434,22.2998162 C65.1657074,22.2998162 64.9983362,22.1326544 64.9983362,21.9265809 L64.9983362,9.72158824 C64.9983362,9.51531618 65.1657074,9.34835294 65.3723434,9.34835294 L68.1980218,9.34875 C68.4266699,9.34875 68.627555,9.50002941 68.6902201,9.71960294 L68.9523821,10.6383971 C69.3515744,10.2335956 69.8941427,9.85877206 70.5838549,9.51511765 C70.7615381,9.42677206 70.9491366,9.34954412 71.1462539,9.28263971 C71.6142588,9.07477941 72.1288658,8.96836765 72.692058,8.96836765 C72.780503,8.96836765 72.8677582,8.97075 72.9540218,8.97531618 C73.0585296,8.97154412 73.1636324,8.96836765 73.2717098,8.96836765 L73.2231245,8.99874265 L73.2544571,9.00489706 C73.459705,9.02733088 73.6078404,9.21176471 73.5854317,9.41664706 L73.5854317,9.41664706 Z M54.0636808,16.9881618 C54.0985828,17.3526618 54.2076518,17.6826176 54.3900943,17.9774338 C54.5723386,18.2728456 54.8071342,18.52875 55.094283,18.7455441 C55.3810351,18.9629338 55.7026892,19.1320809 56.0590472,19.2533824 C56.4154051,19.3748824 56.7848513,19.4356324 57.167584,19.4356324 C57.8453978,19.4356324 58.4191004,19.3099632 58.8886917,19.0580294 C59.221451,18.87975 59.5101862,18.6643456 59.7556904,18.4118162 C59.9224667,18.2400882 60.2014849,18.2474338 60.3704426,18.4169779 L62.2178718,20.2704485 C62.3907956,20.4439632 62.3886143,20.7264706 62.211526,20.8956176 C61.7464958,21.340125 61.2080919,21.7083971 60.596711,22.0002353 C59.5970447,22.4776985 58.4365514,22.7163309 57.1154293,22.7163309 C56.1415429,22.7163309 55.2200097,22.5642574 54.3506312,22.2607059 C53.4808561,21.9571544 52.7205466,21.5146324 52.068711,20.9327426 C51.4170738,20.35125 50.9040532,19.6353529 50.5300459,18.7846544 C50.1560387,17.9345515 49.9692334,16.9621544 49.9692334,15.8684559 C49.9692334,14.8098971 50.1516759,13.8506029 50.5173543,12.9911691 C50.8820411,12.1319338 51.3774123,11.4029338 52.003468,10.8039706 C52.6295236,10.2052059 53.3682177,9.74104412 54.2203434,9.41108824 C55.0720726,9.08152941 55.9940024,8.91635294 56.9847449,8.91635294 C57.9407836,8.91635294 58.8190859,9.07696324 59.6190568,9.39798529 C60.4182346,9.71960294 61.1051705,10.1837647 61.6792696,10.7910662 C62.2531705,11.3989632 62.7001548,12.1363015 63.0224039,13.0042721 C63.3438597,13.8724412 63.5046868,14.8619118 63.5046868,15.9726838 L63.5046868,16.4932279 C63.5046868,16.6671397 63.495763,16.8317206 63.4789069,16.9881618 L54.0636808,16.9881618 L54.0636808,16.9881618 Z M58.9275599,12.5875588 C58.5015961,12.1019559 57.8626505,11.8585588 57.0109214,11.8585588 C56.5936832,11.8585588 56.211347,11.9236765 55.863318,12.0539118 C55.5154873,12.1839485 55.2116808,12.3622279 54.9507086,12.5875588 C54.6897364,12.8134853 54.4813156,13.0783235 54.324653,13.3816765 C54.1681886,13.685625 54.0809335,14.0026765 54.0636808,14.3320368 L59.5669021,14.3320368 C59.5669021,13.65525 59.3537219,13.0737574 58.9275599,12.5875588 L58.9275599,12.5875588 Z M48.1693978,22.2998162 L44.6139492,22.2998162 C44.4075115,22.2998162 44.2401403,22.1326544 44.2401403,21.9265809 L44.2401403,15.2174779 C44.2401403,14.8529779 44.209601,14.5059485 44.1487207,14.1757941 C44.0878404,13.8464338 43.9878936,13.5555882 43.8488803,13.3036544 C43.7092721,13.0523162 43.5137412,12.8523971 43.2620895,12.7046912 C43.0096445,12.5575809 42.6925514,12.4835294 42.3102152,12.4835294 C41.9276808,12.4835294 41.5931366,12.5575809 41.3059879,12.7046912 C41.0190375,12.8523971 40.7798791,13.0562868 40.5889093,13.3167574 C40.3973446,13.5770294 40.2539686,13.8766103 40.1585828,14.2151029 C40.0628005,14.5533971 40.0150085,14.9049926 40.0150085,15.2694926 L40.0150085,21.9263824 C40.0150085,22.1326544 39.8476372,22.2998162 39.6411995,22.2998162 L36.0857509,22.2998162 C35.8793132,22.2998162 35.711942,22.1326544 35.711942,21.9265809 L35.711942,9.70610294 C35.711942,9.50002941 35.8793132,9.33286765 36.0857509,9.33286765 L38.9316566,9.33306618 C39.1569335,9.33306618 39.3558356,9.47997794 39.4214752,9.69518382 L39.6733253,10.5216618 C40.059231,10.1611324 40.5627328,9.82541912 41.1858138,9.51511765 C41.8679903,9.17563235 42.6937412,8.99636029 43.659497,8.97313235 C43.7053059,8.97174265 43.7503216,8.96836765 43.7967255,8.96836765 C43.8094172,8.96836765 43.8215139,8.96916176 43.8342056,8.96936029 C43.8476904,8.96916176 43.8601838,8.96836765 43.8736687,8.96836765 L43.8708924,8.97015441 C44.7077485,8.97888971 45.4220508,9.13374265 46.013601,9.43709559 C46.6220073,9.74958088 47.113214,10.1531912 47.487023,10.6477279 C47.8606336,11.1424632 48.130133,11.7114485 48.2955212,12.3532941 C48.460711,12.9957353 48.5432068,13.6381765 48.5432068,14.2802206 L48.5432068,21.9265809 C48.5432068,22.1326544 48.3758356,22.2998162 48.1693978,22.2998162 L48.1693978,22.2998162 Z" fill="#8DC63F"></path>
                                        <path d="M26.0615236,26.8016691 L18.1038549,26.8018676 C18.0048996,26.8018676 17.9079274,26.7832059 17.8171028,26.7492574 L26.646133,17.9339559 L26.6463313,26.2179926 C26.6463313,26.5404044 26.3843676,26.8016691 26.0615236,26.8016691 L26.0615236,26.8016691 Z M17.7641548,9.06604412 L17.7641548,0.780816176 C17.7647497,0.458801471 18.0263168,0.197933824 18.3489625,0.197933824 L26.0615236,0.197933824 C26.3843676,0.197933824 26.6463313,0.459198529 26.6463313,0.781610294 L26.6463313,9.06544853 L26.6463313,9.06604412 L26.646133,17.9339559 L17.7641548,9.06604412 L17.7641548,9.06604412 Z M17.7641548,9.06564706 L17.7641548,9.06564706 L17.7641548,9.06584559 L17.7641548,9.06564706 L17.7641548,9.06564706 Z M8.88217654,17.9341544 L0.171139057,26.6309338 C0.0654413543,26.5253162 0,26.3793971 0,26.2179926 L0,9.06604412 L8.82922854,0.250544118 C8.84727449,0.257294118 8.86452721,0.265433824 8.88217654,0.273375 L8.88217654,17.9337574 L8.88316808,17.9337574 L8.88217654,17.9339559 L8.88217654,17.9341544 L8.88217654,17.9341544 Z" fill="#8DC63F"></path>
                                        <path d="M17.7641548,26.7274191 C17.6757098,26.6871176 17.5940073,26.6319265 17.5240048,26.5620441 L8.88217654,17.9341544 L8.88217654,17.9339559 L8.88197823,17.9339559 L8.87959855,17.9337574 L8.88197823,17.9337574 L8.88197823,17.9337574 L8.88217654,17.9337574 L8.88217654,0.273375 C8.97042322,0.313477941 9.05232406,0.367875 9.12232648,0.437558824 L17.7641548,9.06584559 L17.7641548,9.06564706 L17.7641548,9.06564706 L17.7641548,9.06584559 L17.7641548,9.06604412 L17.7641548,26.7274191 L17.7641548,26.7274191 Z M8.2973688,26.8016691 L0.584807739,26.8018676 C0.423187424,26.8018676 0.277035067,26.7365515 0.171139057,26.6309338 L8.88217654,17.9341544 L8.88197823,26.2179926 C8.88197823,26.5404044 8.62021282,26.8016691 8.2973688,26.8016691 L8.2973688,26.8016691 Z M0,0.781610294 C0,0.459198529 0.261765417,0.197933824 0.584807739,0.197933824 L8.54247642,0.197933824 C8.64143168,0.197933824 8.73820556,0.216595588 8.82922854,0.250544118 L0,9.06604412 L0,0.781610294 L0,0.781610294 Z" fill="#00AE4D"></path>
                                        <path d="M17.8171028,26.7492574 C17.7990568,26.7425074 17.7816058,26.7351618 17.7641548,26.7274191 L17.7641548,9.06604412 L26.646133,17.9339559 L17.8171028,26.7492574 L17.8171028,26.7492574 Z M17.7641548,9.06564706 L17.7641548,9.06564706 L17.7641548,9.06584559 L17.7641548,9.06564706 L17.7641548,9.06564706 Z" fill="#00682C"></path>
                                    </g>
                                </g>
                            </g>
                        </g>
                    </g>
                </g>
            </g>
        </g>
    </g>
</svg>